<?xml version="1.0" standalone="no"?>
<!DOCTYPE svg PUBLIC "-//W3C//DTD SVG 20010904//EN"
 "http://www.w3.org/TR/2001/REC-SVG-20010904/DTD/svg10.dtd">
<svg version="1.0" xmlns="http://www.w3.org/2000/svg"
 width="2400.000000pt" height="2400.000000pt" viewBox="0 0 2400.000000 2400.000000"
 preserveAspectRatio="xMidYMid meet">
<metadata>
Created by potrace 1.14, written by Peter Selinger 2001-2017
</metadata>
<g transform="translate(0.000000,2400.000000) scale(0.100000,-0.100000)"
fill="#000000" stroke="none">
<path d="M0 12000 l0 -12000 12000 0 12000 0 0 12000 0 12000 -12000 0 -12000
0 0 -12000z m13670 5430 l0 -570 -1720 0 -1720 0 0 570 0 570 1720 0 1720 0 0
-570z m-1431 -1155 c243 -10 553 -51 818 -111 714 -159 1394 -475 1975 -917
70 -53 131 -97 135 -97 5 -1 189 183 409 407 l401 408 57 -48 c186 -160 622
-597 727 -731 l22 -28 -402 -402 c-220 -220 -401 -404 -401 -407 0 -4 42 -63
94 -132 890 -1183 1224 -2711 911 -4164 -284 -1320 -1079 -2476 -2210 -3215
-711 -465 -1505 -739 -2380 -820 -208 -19 -728 -16 -940 6 -1079 111 -2051
526 -2870 1224 -143 122 -452 435 -574 582 -644 772 -1050 1700 -1170 2678
-68 549 -47 1110 60 1642 177 878 567 1671 1159 2361 134 156 455 469 617 602
819 671 1833 1078 2883 1157 234 17 346 18 679 5z"/>
<path d="M11665 15134 c-16 -2 -79 -9 -140 -15 -245 -24 -555 -90 -802 -170
-725 -235 -1362 -664 -1844 -1242 -859 -1028 -1145 -2390 -775 -3679 80 -277
214 -598 357 -852 84 -147 249 -391 365 -536 131 -164 448 -483 602 -605 624
-496 1309 -779 2107 -871 206 -24 624 -24 830 0 522 60 977 196 1419 424 397
204 712 438 1032 765 378 385 659 817 857 1317 314 795 368 1637 157 2465
-360 1417 -1484 2532 -2910 2889 -327 81 -633 117 -989 115 -130 -1 -249 -4
-266 -5z m855 -2849 l0 -1715 -570 0 -570 0 0 1715 0 1715 570 0 570 0 0
-1715z"/>
</g>
</svg>
